<svg width="192" height="32" viewBox="0 0 192 32" fill="none" xmlns="http://www.w3.org/2000/svg">
<path d="M0 2.55011H8.38055C9.90617 2.55011 11.2462 2.70776 12.4007 3.02306C13.5553 3.31866 14.617 3.8803 15.586 4.70798C17.7507 6.56041 18.8331 9.23066 18.8331 12.7187C18.8331 16.4433 17.8022 19.2909 15.7406 21.2616C14.8335 22.1287 13.8439 22.7396 12.7718 23.0943C11.7204 23.4293 10.3288 23.5968 8.59703 23.5968H0V2.55011ZM3.83465 5.68346V20.493H8.38055C10.7927 20.493 12.4935 19.823 13.4831 18.4829C14.4727 17.1429 14.9675 15.2806 14.9675 12.8961C14.9675 10.6298 14.4108 8.86608 13.2976 7.60486C12.1843 6.32393 10.4628 5.68346 8.13316 5.68346H3.83465Z" fill="white"/>
<path d="M26.0904 2.46143V3.24585V5.77214H22.565V2.46143H26.0904ZM26.0904 8.34386V23.5968H22.565V8.34386H26.0904Z" fill="white"/>
<path d="M39.58 8.04826V11.2703C38.9616 11.2112 38.5492 11.1816 38.3431 11.1816C35.2712 11.1816 33.7353 13.0833 33.7353 16.8867V23.5968H30.2408V8.34386H33.5498V11.3885C34.6837 9.12227 36.467 7.98914 38.8997 7.98914L39.58 8.04826Z" fill="white"/>
<path d="M56.0184 18.8376C55.6267 20.493 54.7711 21.7838 53.4516 22.71C52.1528 23.6362 50.5963 24.0993 48.782 24.0993C46.3699 24.0993 44.4526 23.3603 43.0301 21.8823C41.6282 20.3846 40.9272 18.4731 40.9272 16.1477C40.9272 13.7632 41.6488 11.7925 43.0919 10.2357C44.5557 8.67887 46.4112 7.90046 48.6583 7.90046C50.988 7.90046 52.8332 8.66902 54.1938 10.2061C55.5545 11.7235 56.2349 13.8026 56.2349 16.4433V16.798H44.4526C44.4938 18.3351 44.8959 19.5274 45.6587 20.3748C46.4215 21.2024 47.4832 21.6163 48.8439 21.6163C49.8129 21.6163 50.5963 21.3995 51.1941 20.966C51.8126 20.5127 52.2971 19.8033 52.6476 18.8376H56.0184ZM52.7095 14.5514C52.6064 13.2705 52.1837 12.2655 51.4415 11.5363C50.72 10.7875 49.7819 10.4131 48.6274 10.4131C47.4729 10.4131 46.5349 10.7678 45.8133 11.4772C45.1123 12.1867 44.6794 13.2114 44.5144 14.5514H52.7095Z" fill="white"/>
<path d="M74.0061 17.8326C73.7587 19.7047 72.9753 21.2024 71.6558 22.3257C70.3364 23.4293 68.6768 23.9811 66.677 23.9811C64.2855 23.9811 62.3784 23.2618 60.9559 21.8232C59.5334 20.3649 58.8221 18.4632 58.8221 16.1181C58.8221 13.5957 59.5334 11.5955 60.9559 10.1175C62.3991 8.61975 64.337 7.8709 66.7697 7.8709C68.8108 7.8709 70.4498 8.36356 71.6867 9.3489C72.9443 10.3342 73.6762 11.7038 73.8824 13.4577H70.3879C70.1817 12.4921 69.7694 11.7531 69.1509 11.2407C68.5324 10.7284 67.749 10.4722 66.8007 10.4722C65.44 10.4722 64.3679 10.9648 63.5845 11.9502C62.8011 12.9158 62.4094 14.246 62.4094 15.9408C62.4094 17.6355 62.7805 18.9559 63.5227 19.9018C64.2855 20.8477 65.3369 21.3207 66.677 21.3207C67.7284 21.3207 68.584 21.0251 69.2437 20.4339C69.924 19.823 70.357 18.9559 70.5425 17.8326H74.0061Z" fill="white"/>
<path d="M84.51 8.34386V10.7973H81.2939V18.8376C81.2939 19.3106 81.3042 19.6456 81.3248 19.8427C81.3454 20.02 81.4073 20.227 81.5104 20.4634C81.6134 20.6802 81.7887 20.828 82.0361 20.9068C82.3041 20.9857 82.6649 21.0251 83.1184 21.0251C83.6957 21.0251 84.1596 21.0054 84.51 20.966V23.6264C83.8091 23.7052 83.0154 23.7446 82.1289 23.7446C81.5104 23.7446 80.964 23.6953 80.4899 23.5968C80.0363 23.518 79.6549 23.4194 79.3456 23.3012C79.0364 23.183 78.7787 22.9859 78.5725 22.71C78.3664 22.4144 78.2014 22.1779 78.0777 22.0006C77.9746 21.8035 77.8922 21.4685 77.8303 20.9955C77.7891 20.5226 77.7685 20.1678 77.7685 19.9314C77.7685 19.6752 77.7685 19.2416 77.7685 18.6307C77.7685 18.5519 77.7685 18.4928 77.7685 18.4534C77.7685 18.3942 77.7685 18.3351 77.7685 18.276C77.7685 18.1972 77.7685 18.1282 77.7685 18.0691V10.7973H75.109V8.34386H77.7685V3.76206H81.2939V8.34386H84.51Z" fill="white"/>
<path d="M94.4061 7.90046C96.8389 7.90046 98.7768 8.6296 100.22 10.0879C101.663 11.5462 102.385 13.507 102.385 15.9703C102.385 18.4534 101.663 20.424 100.22 21.8823C98.7974 23.3406 96.8595 24.0698 94.4061 24.0698C91.9116 24.0698 89.9324 23.3406 88.4686 21.8823C87.0049 20.424 86.273 18.4534 86.273 15.9703C86.273 13.507 87.0049 11.5462 88.4686 10.0879C89.953 8.6296 91.9322 7.90046 94.4061 7.90046ZM97.6223 12.0093C96.8389 11.0437 95.7462 10.5609 94.3443 10.5609C92.9424 10.5609 91.8394 11.0437 91.0354 12.0093C90.2313 12.9749 89.8293 14.2953 89.8293 15.9703C89.8293 17.6848 90.2313 19.0249 91.0354 19.9905C91.8394 20.9561 92.9527 21.4389 94.3752 21.4389C95.7565 21.4389 96.8389 20.9561 97.6223 19.9905C98.4263 19.0051 98.8284 17.6552 98.8284 15.9408C98.8284 14.2657 98.4263 12.9552 97.6223 12.0093Z" fill="white"/>
<path d="M108.346 2.55011V23.5968H104.852V2.55011H107.634H108.346Z" fill="white"/>
<path d="M119.578 7.90046C122.011 7.90046 123.949 8.6296 125.392 10.0879C126.835 11.5462 127.557 13.507 127.557 15.9703C127.557 18.4534 126.835 20.424 125.392 21.8823C123.97 23.3406 122.032 24.0698 119.578 24.0698C117.084 24.0698 115.104 23.3406 113.641 21.8823C112.177 20.424 111.445 18.4534 111.445 15.9703C111.445 13.507 112.177 11.5462 113.641 10.0879C115.125 8.6296 117.104 7.90046 119.578 7.90046ZM122.794 12.0093C122.011 11.0437 120.918 10.5609 119.516 10.5609C118.114 10.5609 117.012 11.0437 116.207 12.0093C115.403 12.9749 115.001 14.2953 115.001 15.9703C115.001 17.6848 115.403 19.0249 116.207 19.9905C117.012 20.9561 118.125 21.4389 119.547 21.4389C120.929 21.4389 122.011 20.9561 122.794 19.9905C123.598 19.0051 124 17.6552 124 15.9408C124 14.2657 123.598 12.9552 122.794 12.0093Z" fill="white"/>
<path d="M145.146 8.34386V21.8232C145.146 24.4442 144.558 26.3853 143.383 27.6465C142.229 28.9077 140.26 29.5383 137.477 29.5383C133.106 29.5383 130.725 27.9914 130.333 24.8974H133.858C134.188 26.4148 135.425 27.1736 137.569 27.1736C139.033 27.1736 140.095 26.8188 140.755 26.1094C141.435 25.4 141.775 24.257 141.775 22.6804V20.8773C140.621 22.5918 138.93 23.449 136.703 23.449C134.58 23.449 132.889 22.7691 131.632 21.4094C130.395 20.0299 129.776 18.1775 129.776 15.8521C129.776 13.4676 130.426 11.556 131.725 10.1175C133.023 8.65916 134.745 7.93002 136.889 7.93002C138.023 7.93002 138.971 8.13694 139.734 8.55078C140.497 8.94491 141.208 9.58538 141.868 10.4722V8.34386H145.146ZM137.507 10.6495C136.188 10.6495 135.147 11.1028 134.384 12.0093C133.642 12.9158 133.271 14.177 133.271 15.793C133.271 17.3301 133.652 18.5519 134.415 19.4584C135.198 20.3649 136.229 20.8182 137.507 20.8182C138.827 20.8182 139.868 20.3551 140.631 19.4288C141.394 18.4829 141.775 17.2118 141.775 15.6156C141.775 14.0588 141.394 12.8468 140.631 11.9797C139.889 11.0929 138.848 10.6495 137.507 10.6495Z" fill="white"/>
<rect x="150.069" width="41.931" height="32" rx="3.81963" fill="#FF9900"/>
<path d="M156.703 19.4349V23.4669H152.268V19.4349H156.703Z" fill="black"/>
<path d="M169.856 7.757V11.0125C169.204 10.9527 168.769 10.9229 168.552 10.9229C165.312 10.9229 163.693 12.8443 163.693 16.6871V23.4669H160.007V8.05566H163.497V11.1319C164.693 8.84215 166.573 7.69727 169.139 7.69727L169.856 7.757Z" fill="black"/>
<path d="M187.225 8.05566V23.4669H183.735V21.1671C182.322 22.979 180.474 23.885 178.191 23.885C176.343 23.885 174.919 23.4071 173.919 22.4514C172.94 21.4758 172.451 20.082 172.451 18.2701V8.05566H176.169V16.8663C176.169 17.4039 176.18 17.842 176.202 18.1805C176.223 18.499 176.289 18.8674 176.397 19.2855C176.528 19.6838 176.702 19.9924 176.919 20.2114C177.158 20.4304 177.484 20.6196 177.898 20.7789C178.332 20.9382 178.854 21.0178 179.463 21.0178C180.855 21.0178 181.876 20.5698 182.529 19.6738C183.181 18.7579 183.507 17.603 183.507 16.2093V8.05566H187.225Z" fill="black"/>
</svg>
