<svg width="72" height="72" viewBox="0 0 72 72" fill="none" xmlns="http://www.w3.org/2000/svg">
<path d="M46.7995 35.9995C46.7995 38.8638 45.6616 41.6108 43.6362 43.6362C41.6108 45.6616 38.8638 46.7995 35.9995 46.7995C33.1351 46.7995 30.3881 45.6616 28.3627 43.6362C26.3373 41.6108 25.1995 38.8638 25.1995 35.9995C25.1995 35.3839 25.2643 34.7827 25.3759 34.1995H21.5995V48.5887C21.5995 49.5895 22.4095 50.3995 23.4103 50.3995H48.5923C49.0719 50.3985 49.5315 50.2073 49.8704 49.8678C50.2092 49.5283 50.3995 49.0683 50.3995 48.5887V34.1995H46.6231C46.7347 34.7827 46.7995 35.3839 46.7995 35.9995ZM35.9995 43.1995C36.9452 43.1992 37.8817 43.0127 38.7553 42.6506C39.629 42.2884 40.4228 41.7577 41.0914 41.0888C41.76 40.4199 42.2902 39.6259 42.6519 38.752C43.0136 37.8781 43.1997 36.9416 43.1995 35.9959C43.1992 35.0501 43.0127 34.1137 42.6506 33.24C42.2884 32.3663 41.7577 31.5725 41.0888 30.9039C40.4199 30.2354 39.6259 29.7051 38.752 29.3434C37.8781 28.9817 36.9416 28.7956 35.9959 28.7959C34.0858 28.7963 32.2542 29.5555 30.9039 30.9065C29.5537 32.2574 28.7954 34.0894 28.7959 35.9995C28.7963 37.9095 29.5555 39.7411 30.9065 41.0914C32.2574 42.4416 34.0894 43.1999 35.9995 43.1995ZM44.6395 28.4395H48.9559C49.2426 28.4395 49.5177 28.3258 49.7208 28.1233C49.9239 27.9209 50.0385 27.6462 50.0395 27.3595V23.0431C50.0395 22.7557 49.9253 22.48 49.7221 22.2768C49.5189 22.0736 49.2432 21.9595 48.9559 21.9595H44.6395C44.3521 21.9595 44.0764 22.0736 43.8732 22.2768C43.67 22.48 43.5559 22.7557 43.5559 23.0431V27.3595C43.5595 27.9535 44.0455 28.4395 44.6395 28.4395ZM35.9995 1.43945C26.8336 1.43945 18.0431 5.08058 11.5618 11.5618C5.08058 18.0431 1.43945 26.8336 1.43945 35.9995C1.43945 45.1653 5.08058 53.9558 11.5618 60.4371C18.0431 66.9183 26.8336 70.5595 35.9995 70.5595C40.5379 70.5595 45.032 69.6655 49.225 67.9287C53.418 66.1919 57.2279 63.6463 60.4371 60.4371C63.6463 57.2279 66.1919 53.418 67.9287 49.225C69.6655 45.032 70.5595 40.5379 70.5595 35.9995C70.5595 31.461 69.6655 26.9669 67.9287 22.7739C66.1919 18.5809 63.6463 14.771 60.4371 11.5618C57.2279 8.35265 53.418 5.80698 49.225 4.07018C45.032 2.33337 40.5379 1.43945 35.9995 1.43945ZM53.9995 49.9999C53.9995 52.1995 52.1995 53.9995 49.9999 53.9995H21.9991C19.7995 53.9995 17.9995 52.1995 17.9995 49.9999V21.9991C17.9995 19.7995 19.7995 17.9995 21.9991 17.9995H49.9999C52.1995 17.9995 53.9995 19.7995 53.9995 21.9991V49.9999Z" fill="#FF9900"/>
</svg>
