<svg width="72" height="72" viewBox="0 0 72 72" fill="none" xmlns="http://www.w3.org/2000/svg">
<path d="M35.9995 1.43945C16.9123 1.43945 1.43945 16.9123 1.43945 35.9995C1.43945 55.0867 16.9123 70.5594 35.9995 70.5594C55.0867 70.5594 70.5594 55.0867 70.5594 35.9995C70.5594 16.9123 55.0867 1.43945 35.9995 1.43945ZM49.2907 40.431C49.2907 40.431 52.347 43.4479 53.0994 44.8483C53.121 44.8771 53.1318 44.9058 53.139 44.9202C53.445 45.4351 53.5171 45.8346 53.3659 46.1334C53.1138 46.6302 52.2499 46.8751 51.9547 46.8967H46.5546C46.1803 46.8967 45.3955 46.7994 44.445 46.1442C43.7142 45.633 42.9943 44.7943 42.2923 43.9771C41.2447 42.7603 40.3375 41.7091 39.423 41.7091C39.3069 41.7089 39.1915 41.7271 39.0811 41.7631C38.3899 41.9863 37.5043 42.9726 37.5043 45.6007C37.5043 46.4215 36.8563 46.8931 36.3991 46.8931H33.9258C33.0835 46.8931 28.695 46.5979 24.8071 42.4975C20.0478 37.4755 15.7639 27.4027 15.7279 27.309C15.4579 26.6574 16.0159 26.3083 16.6243 26.3083H22.0783C22.8055 26.3083 23.0431 26.7511 23.2087 27.1434C23.4031 27.6007 24.1159 29.4187 25.2859 31.4635C27.1831 34.7971 28.3459 36.1507 29.2783 36.1507C29.4531 36.1486 29.6248 36.1041 29.7787 36.021C30.9955 35.3442 30.7687 31.0063 30.7147 30.1063C30.7147 29.937 30.7111 28.1658 30.0882 27.3162C29.6418 26.7006 28.8822 26.4667 28.4214 26.3803C28.608 26.1229 28.8537 25.9142 29.1378 25.7719C29.973 25.3542 31.4779 25.2931 32.9719 25.2931H33.8035C35.4235 25.3147 35.8411 25.4191 36.4279 25.5667C37.6159 25.8511 37.6411 26.6179 37.5367 29.2423C37.5042 29.9875 37.4719 30.8299 37.4719 31.8235C37.4719 32.0395 37.4611 32.2698 37.4611 32.5147C37.4251 33.8503 37.3819 35.3658 38.3251 35.9887C38.4481 36.0658 38.5902 36.1069 38.7355 36.1074C39.0631 36.1074 40.0494 36.1075 42.7206 31.5247C43.5445 30.0496 44.2603 28.5168 44.8627 26.9382C44.9166 26.8447 45.0751 26.5567 45.2622 26.4451C45.4004 26.3746 45.5536 26.3388 45.7086 26.3407H52.1202C52.8186 26.3407 53.2975 26.4451 53.3875 26.715C53.5458 27.1434 53.3587 28.4503 50.4319 32.4139L49.125 34.1383C46.4719 37.6159 46.4719 37.7923 49.2907 40.431Z" fill="#FF9900"/>
</svg>
