<svg width="192" height="32" viewBox="0 0 192 32" fill="none" xmlns="http://www.w3.org/2000/svg">
<path d="M16.9901 2.76367V5.92786H10.329V23.6239H6.66104V5.92786H0V2.76367H16.9901Z" fill="white"/>
<path d="M16.4667 13.1645C16.8188 9.74637 19.0294 8.03731 23.0984 8.03731C24.996 8.03731 26.5023 8.40842 27.6173 9.15064C28.752 9.89286 29.3193 11.0452 29.3193 12.6078V20.2839C29.3193 20.7136 29.3682 21.0066 29.466 21.1628C29.5834 21.3191 29.7986 21.3972 30.1116 21.3972C30.3463 21.3972 30.6006 21.3777 30.8745 21.3386V23.6825C30.0137 23.8973 29.2899 24.0047 28.7031 24.0047C27.275 24.0047 26.4534 23.3992 26.2382 22.1883C24.9666 23.3992 23.1962 24.0047 20.927 24.0047C19.3619 24.0047 18.1197 23.6043 17.2003 22.8035C16.2808 21.9832 15.8211 20.8796 15.8211 19.4928C15.8211 19.0631 15.87 18.6627 15.9678 18.2916C16.0657 17.9205 16.1733 17.5982 16.2906 17.3248C16.4276 17.0513 16.633 16.7974 16.9068 16.563C17.2003 16.3287 17.435 16.1333 17.6111 15.9771C17.8067 15.8208 18.1099 15.6743 18.5208 15.5376C18.9511 15.4009 19.2641 15.3032 19.4598 15.2446C19.6749 15.1665 20.0369 15.0884 20.5455 15.0102C21.0541 14.9321 21.3867 14.8833 21.5432 14.8638C21.7192 14.8247 22.0714 14.7759 22.5995 14.7173C23.7929 14.561 24.6047 14.434 25.0351 14.3364C25.4655 14.2192 25.7589 14.0532 25.9154 13.8383C26.0523 13.6821 26.1208 13.3207 26.1208 12.7543C26.1208 11.2308 25.084 10.469 23.0104 10.469C21.9149 10.469 21.1128 10.6741 20.6042 11.0843C20.0955 11.4945 19.7728 12.1879 19.6358 13.1645H16.4667ZM26.0915 16.0357C25.8371 16.1724 25.5437 16.2994 25.2111 16.4165C24.8786 16.5142 24.6047 16.5826 24.3895 16.6216C24.1939 16.6412 23.8711 16.6802 23.4212 16.7388C22.9908 16.7974 22.7071 16.8365 22.5702 16.856C22.1594 16.9146 21.8366 16.9732 21.6019 17.0318C21.3671 17.0709 21.0737 17.149 20.7215 17.2662C20.389 17.3834 20.1249 17.5299 19.9293 17.7057C19.7532 17.8619 19.5967 18.0865 19.4598 18.3795C19.3228 18.653 19.2544 18.985 19.2544 19.3756C19.2544 20.0983 19.4891 20.655 19.9586 21.0456C20.4477 21.4363 21.1226 21.6316 21.9833 21.6316C23.4701 21.6316 24.6145 21.2312 25.4165 20.4304C25.8665 19.9811 26.0915 19.112 26.0915 17.8229V16.0357Z" fill="white"/>
<path d="M42.074 8.2131V11.4066C41.4871 11.348 41.0958 11.3187 40.9002 11.3187C37.9854 11.3187 36.528 13.2035 36.528 16.9732V23.6239H33.2121V8.50608H36.3519V11.5238C37.4279 9.2776 39.12 8.15451 41.4284 8.15451L42.074 8.2131Z" fill="white"/>
<path d="M58.2883 8.50608V21.866C58.2883 24.4637 57.7307 26.3876 56.6157 27.6377C55.5202 28.8877 53.6519 29.5128 51.011 29.5128C46.8637 29.5128 44.6043 27.9795 44.2326 24.913H47.5778C47.8908 26.4169 49.0645 27.1689 51.099 27.1689C52.488 27.1689 53.4954 26.8173 54.1214 26.1142C54.767 25.411 55.0898 24.2782 55.0898 22.7156V20.9284C53.9943 22.6277 52.3902 23.4774 50.2774 23.4774C48.2625 23.4774 46.6583 22.8035 45.465 21.4558C44.2913 20.0886 43.7044 18.2526 43.7044 15.9478C43.7044 13.5844 44.3206 11.6898 45.5531 10.264C46.7855 8.81859 48.419 8.09591 50.4535 8.09591C51.5294 8.09591 52.4293 8.301 53.1531 8.71117C53.8769 9.10181 54.5518 9.7366 55.1778 10.6155V8.50608H58.2883ZM51.0403 10.7913C49.7883 10.7913 48.8004 11.2406 48.0766 12.139C47.3724 13.0375 47.0202 14.2876 47.0202 15.8892C47.0202 17.4127 47.3821 18.6237 48.106 19.5221C48.8493 20.4206 49.8275 20.8698 51.0403 20.8698C52.2923 20.8698 53.2803 20.4108 54.0041 19.4928C54.7279 18.5553 55.0898 17.2955 55.0898 15.7134C55.0898 14.1704 54.7279 12.9691 54.0041 12.1097C53.2998 11.2308 52.3119 10.7913 51.0403 10.7913Z" fill="white"/>
<path d="M75.9466 18.9069C75.5749 20.5476 74.763 21.8269 73.511 22.7449C72.2786 23.6629 70.8016 24.1219 69.0801 24.1219C66.7913 24.1219 64.972 23.3895 63.6222 21.9246C62.2919 20.4401 61.6268 18.5455 61.6268 16.2408C61.6268 13.8774 62.3115 11.9242 63.6809 10.3812C65.0698 8.83813 66.8304 8.06661 68.9628 8.06661C71.1733 8.06661 72.9242 8.82836 74.2153 10.3519C75.5064 11.8558 76.152 13.9164 76.152 16.5337V16.8853H64.972C65.0111 18.4088 65.3926 19.5905 66.1164 20.4304C66.8402 21.2507 67.8477 21.6609 69.1388 21.6609C70.0583 21.6609 70.8016 21.446 71.3689 21.0163C71.9558 20.5671 72.4156 19.8639 72.7481 18.9069H75.9466ZM72.8068 14.6587C72.709 13.3891 72.308 12.393 71.6037 11.6703C70.919 10.9281 70.0289 10.5569 68.9334 10.5569C67.8379 10.5569 66.9478 10.9085 66.2631 11.6117C65.598 12.3148 65.1872 13.3305 65.0307 14.6587H72.8068Z" fill="white"/>
<path d="M86.6766 8.50608V10.9378H83.6248V18.9069C83.6248 19.3756 83.6346 19.7077 83.6542 19.903C83.6737 20.0788 83.7324 20.2839 83.8302 20.5183C83.928 20.7331 84.0943 20.8796 84.3291 20.9577C84.5834 21.0359 84.9257 21.0749 85.3561 21.0749C85.9038 21.0749 86.344 21.0554 86.6766 21.0163V23.6532C86.0114 23.7313 85.2583 23.7703 84.4171 23.7703C83.8302 23.7703 83.3118 23.7215 82.8619 23.6239C82.4315 23.5457 82.0696 23.4481 81.7761 23.3309C81.4827 23.2137 81.2382 23.0184 81.0425 22.7449C80.8469 22.4519 80.6904 22.2176 80.5731 22.0418C80.4752 21.8464 80.397 21.5144 80.3383 21.0456C80.2992 20.5769 80.2796 20.2253 80.2796 19.9909C80.2796 19.737 80.2796 19.3073 80.2796 18.7018C80.2796 18.6237 80.2796 18.5651 80.2796 18.526C80.2796 18.4674 80.2796 18.4088 80.2796 18.3502C80.2796 18.2721 80.2796 18.2037 80.2796 18.1451V10.9378H77.756V8.50608H80.2796V3.96489H83.6248V8.50608H86.6766Z" fill="white"/>
<path d="M96.6537 8.06661C98.9621 8.06661 100.801 8.7893 102.17 10.2347C103.54 11.68 104.224 13.6235 104.224 16.065C104.224 18.526 103.54 20.4792 102.17 21.9246C100.821 23.3699 98.9816 24.0926 96.6537 24.0926C94.2866 24.0926 92.4086 23.3699 91.0197 21.9246C89.6307 20.4792 88.9363 18.526 88.9363 16.065C88.9363 13.6235 89.6307 11.68 91.0197 10.2347C92.4282 8.7893 94.3062 8.06661 96.6537 8.06661ZM99.7054 12.139C98.9621 11.182 97.9252 10.7034 96.595 10.7034C95.2647 10.7034 94.2181 11.182 93.4552 12.139C92.6923 13.0961 92.3108 14.4047 92.3108 16.065C92.3108 17.7643 92.6923 19.0924 93.4552 20.0495C94.2181 21.0066 95.2745 21.4851 96.6243 21.4851C97.935 21.4851 98.9621 21.0066 99.7054 20.0495C100.468 19.0729 100.85 17.735 100.85 16.0357C100.85 14.3755 100.468 13.0766 99.7054 12.139Z" fill="white"/>
<path d="M111.055 2.76367V23.6239H107.739V2.76367H111.055Z" fill="white"/>
<path d="M122.3 8.06661C124.608 8.06661 126.447 8.7893 127.816 10.2347C129.186 11.68 129.87 13.6235 129.87 16.065C129.87 18.526 129.186 20.4792 127.816 21.9246C126.467 23.3699 124.628 24.0926 122.3 24.0926C119.933 24.0926 118.055 23.3699 116.666 21.9246C115.277 20.4792 114.582 18.526 114.582 16.065C114.582 13.6235 115.277 11.68 116.666 10.2347C118.074 8.7893 119.952 8.06661 122.3 8.06661ZM125.351 12.139C124.608 11.182 123.571 10.7034 122.241 10.7034C120.911 10.7034 119.864 11.182 119.101 12.139C118.338 13.0961 117.957 14.4047 117.957 16.065C117.957 17.7643 118.338 19.0924 119.101 20.0495C119.864 21.0066 120.921 21.4851 122.27 21.4851C123.581 21.4851 124.608 21.0066 125.351 20.0495C126.114 19.0729 126.496 17.735 126.496 16.0357C126.496 14.3755 126.114 13.0766 125.351 12.139Z" fill="white"/>
<path d="M147.147 8.50608V21.866C147.147 24.4637 146.59 26.3876 145.475 27.6377C144.379 28.8877 142.511 29.5128 139.87 29.5128C135.723 29.5128 133.463 27.9795 133.092 24.913H136.437C136.75 26.4169 137.924 27.1689 139.958 27.1689C141.347 27.1689 142.354 26.8173 142.98 26.1142C143.626 25.411 143.949 24.2782 143.949 22.7156V20.9284C142.853 22.6277 141.249 23.4774 139.136 23.4774C137.121 23.4774 135.517 22.8035 134.324 21.4558C133.15 20.0886 132.563 18.2526 132.563 15.9478C132.563 13.5844 133.18 11.6898 134.412 10.264C135.644 8.81859 137.278 8.09591 139.312 8.09591C140.388 8.09591 141.288 8.301 142.012 8.71117C142.736 9.10181 143.411 9.7366 144.037 10.6155V8.50608H147.147ZM139.899 10.7913C138.647 10.7913 137.659 11.2406 136.936 12.139C136.231 13.0375 135.879 14.2876 135.879 15.8892C135.879 17.4127 136.241 18.6237 136.965 19.5221C137.708 20.4206 138.686 20.8698 139.899 20.8698C141.151 20.8698 142.139 20.4108 142.863 19.4928C143.587 18.5553 143.949 17.2955 143.949 15.7134C143.949 14.1704 143.587 12.9691 142.863 12.1097C142.159 11.2308 141.171 10.7913 139.899 10.7913Z" fill="white"/>
<rect x="151.306" width="40.6944" height="32" rx="2.97674" fill="#FD9A00"/>
<path d="M157.744 19.4349V23.4669H153.439V19.4349H157.744Z" fill="black"/>
<path d="M170.51 7.757V11.0125C169.877 10.9527 169.455 10.9229 169.244 10.9229C166.1 10.9229 164.528 12.8443 164.528 16.6871V23.4669H160.951V8.05566H164.338V11.1319C165.498 8.84215 167.323 7.69727 169.813 7.69727L170.51 7.757Z" fill="black"/>
<path d="M187.366 8.05566V23.4669H183.979V21.1671C182.608 22.979 180.814 23.885 178.598 23.885C176.805 23.885 175.423 23.4071 174.452 22.4514C173.503 21.4758 173.028 20.082 173.028 18.2701V8.05566H176.636V16.8663C176.636 17.4039 176.647 17.842 176.668 18.1805C176.689 18.499 176.752 18.8674 176.858 19.2855C176.984 19.6838 177.153 19.9924 177.364 20.2114C177.596 20.4304 177.913 20.6196 178.314 20.7789C178.736 20.9382 179.242 21.0178 179.833 21.0178C181.183 21.0178 182.175 20.5698 182.808 19.6738C183.441 18.7579 183.758 17.603 183.758 16.2093V8.05566H187.366Z" fill="black"/>
</svg>
