<svg width="128" height="22" viewBox="0 0 128 22" fill="none" xmlns="http://www.w3.org/2000/svg">
<path d="M11.3267 1.90137V4.07674H6.88602V16.2427H4.4407V4.07674H0V1.90137H11.3267Z" fill="white"/>
<path d="M10.9778 9.05191C11.2126 6.70197 12.6863 5.527 15.3989 5.527C16.664 5.527 17.6682 5.78213 18.4116 6.29241C19.168 6.80268 19.5462 7.59495 19.5462 8.66921V13.9465C19.5462 14.2419 19.5788 14.4434 19.644 14.5508C19.7223 14.6582 19.8657 14.7119 20.0744 14.7119C20.2309 14.7119 20.4004 14.6985 20.583 14.6716V16.283C20.0092 16.4307 19.5266 16.5046 19.1354 16.5046C18.1833 16.5046 17.6356 16.0883 17.4921 15.2558C16.6444 16.0883 15.4642 16.5046 13.9513 16.5046C12.908 16.5046 12.0798 16.2293 11.4669 15.6788C10.8539 15.1148 10.5474 14.3561 10.5474 13.4027C10.5474 13.1072 10.58 12.832 10.6452 12.5768C10.7104 12.3217 10.7822 12.1001 10.8604 11.9121C10.9517 11.7241 11.0887 11.5496 11.2712 11.3884C11.4669 11.2273 11.6234 11.093 11.7407 10.9856C11.8712 10.8782 12.0733 10.7774 12.3472 10.6834C12.6341 10.5894 12.8428 10.5223 12.9732 10.482C13.1166 10.4283 13.3579 10.3746 13.697 10.3209C14.0361 10.2672 14.2578 10.2336 14.3621 10.2202C14.4795 10.1933 14.7143 10.1597 15.0664 10.1195C15.8619 10.012 16.4032 9.92475 16.6901 9.85761C16.977 9.77704 17.1726 9.6629 17.2769 9.51519C17.3682 9.40776 17.4139 9.15934 17.4139 8.76992C17.4139 7.72252 16.7227 7.19881 15.3403 7.19881C14.6099 7.19881 14.0752 7.33981 13.7361 7.6218C13.397 7.9038 13.1819 8.3805 13.0906 9.05191H10.9778ZM17.3943 11.0259C17.2248 11.1199 17.0292 11.2071 16.8074 11.2877C16.5857 11.3549 16.4032 11.4019 16.2597 11.4287C16.1293 11.4421 15.9141 11.469 15.6141 11.5093C15.3272 11.5496 15.1381 11.5764 15.0468 11.5899C14.7729 11.6301 14.5578 11.6704 14.4013 11.7107C14.2448 11.7376 14.0491 11.7913 13.8144 11.8718C13.5927 11.9524 13.4166 12.0531 13.2862 12.174C13.1688 12.2814 13.0645 12.4358 12.9732 12.6373C12.8819 12.8253 12.8362 13.0535 12.8362 13.3221C12.8362 13.8189 12.9927 14.2016 13.3057 14.4702C13.6318 14.7388 14.0817 14.8731 14.6556 14.8731C15.6467 14.8731 16.4097 14.5978 16.9444 14.0472C17.2443 13.7384 17.3943 13.1408 17.3943 12.2546V11.0259Z" fill="white"/>
<path d="M28.0493 5.64785V7.84337C27.6581 7.80309 27.3973 7.78294 27.2668 7.78294C25.3236 7.78294 24.352 9.07877 24.352 11.6704V16.2427H22.1415V5.84927H24.2346V7.92394C24.9519 6.37969 26.08 5.60757 27.619 5.60757L28.0493 5.64785Z" fill="white"/>
<path d="M38.8589 5.84927V15.0342C38.8589 16.8202 38.4872 18.1428 37.7438 19.0023C37.0135 19.8617 35.768 20.2914 34.0074 20.2914C31.2425 20.2914 29.7362 19.2372 29.4884 17.129H31.7185C31.9272 18.163 32.7097 18.68 34.0661 18.68C34.992 18.68 35.6637 18.4383 36.081 17.9548C36.5114 17.4714 36.7266 16.6926 36.7266 15.6183V14.3896C35.9962 15.5579 34.9268 16.142 33.5183 16.142C32.175 16.142 31.1056 15.6788 30.31 14.7522C29.5275 13.8122 29.1363 12.55 29.1363 10.9654C29.1363 9.34062 29.5471 8.03808 30.3687 7.05782C31.1904 6.06413 32.2793 5.56728 33.6357 5.56728C34.353 5.56728 34.9529 5.70828 35.4354 5.99027C35.918 6.25884 36.3679 6.69525 36.7852 7.29953V5.84927H38.8589ZM34.0269 7.42038C33.1923 7.42038 32.5337 7.72923 32.0511 8.34693C31.5816 8.96463 31.3469 9.82404 31.3469 10.9252C31.3469 11.9726 31.5881 12.8051 32.0707 13.4228C32.5663 14.0405 33.2183 14.3494 34.0269 14.3494C34.8616 14.3494 35.5202 14.0338 36.0027 13.4027C36.4853 12.7581 36.7266 11.892 36.7266 10.8043C36.7266 9.74347 36.4853 8.91763 36.0027 8.32679C35.5332 7.72252 34.8746 7.42038 34.0269 7.42038Z" fill="white"/>
<path d="M50.6311 12.9998C50.3833 14.1278 49.8421 15.0073 49.0074 15.6385C48.1858 16.2696 47.2011 16.5852 46.0535 16.5852C44.5276 16.5852 43.3147 16.0816 42.4148 15.0745C41.528 14.0539 41.0846 12.7514 41.0846 11.1669C41.0846 9.54204 41.541 8.19922 42.454 7.13839C43.3799 6.07755 44.5537 5.54714 45.9752 5.54714C47.4489 5.54714 48.6162 6.07084 49.4769 7.11824C50.3377 8.15222 50.768 9.5689 50.768 11.3683V11.61H43.3147C43.3408 12.6574 43.5951 13.4698 44.0776 14.0472C44.5602 14.6112 45.2318 14.8932 46.0926 14.8932C46.7056 14.8932 47.2011 14.7455 47.5793 14.4501C47.9706 14.1412 48.2771 13.6578 48.4988 12.9998H50.6311ZM48.5379 10.0792C48.4727 9.20634 48.2053 8.5215 47.7358 8.02465C47.2794 7.51438 46.686 7.25924 45.9557 7.25924C45.2253 7.25924 44.6319 7.50095 44.1755 7.98437C43.732 8.46778 43.4582 9.16605 43.3538 10.0792H48.5379Z" fill="white"/>
<path d="M57.7844 5.84927V7.52109H55.7499V12.9998C55.7499 13.3221 55.7564 13.5504 55.7695 13.6847C55.7825 13.8055 55.8217 13.9465 55.8869 14.1077C55.9521 14.2554 56.0629 14.3561 56.2194 14.4098C56.389 14.4635 56.6172 14.4904 56.9041 14.4904C57.2693 14.4904 57.5627 14.4769 57.7844 14.4501V16.2629C57.341 16.3166 56.8389 16.3435 56.2781 16.3435C55.8869 16.3435 55.5413 16.3099 55.2413 16.2427C54.9544 16.189 54.7131 16.1219 54.5175 16.0413C54.3219 15.9608 54.1588 15.8265 54.0284 15.6385C53.898 15.437 53.7937 15.2759 53.7154 15.1551C53.6502 15.0208 53.598 14.7925 53.5589 14.4702C53.5328 14.1479 53.5198 13.9062 53.5198 13.7451C53.5198 13.5705 53.5198 13.2751 53.5198 12.8588C53.5198 12.8051 53.5198 12.7648 53.5198 12.738C53.5198 12.6977 53.5198 12.6574 53.5198 12.6171C53.5198 12.5634 53.5198 12.5164 53.5198 12.4761V7.52109H51.8374V5.84927H53.5198V2.72721H55.7499V5.84927H57.7844Z" fill="white"/>
<path d="M64.4359 5.54714C65.9748 5.54714 67.2007 6.04398 68.1136 7.03767C69.0265 8.03137 69.483 9.36748 69.483 11.046C69.483 12.738 69.0265 14.0808 68.1136 15.0745C67.2137 16.0682 65.9878 16.565 64.4359 16.565C62.8578 16.565 61.6058 16.0682 60.6798 15.0745C59.7539 14.0808 59.2909 12.738 59.2909 11.046C59.2909 9.36748 59.7539 8.03137 60.6798 7.03767C61.6188 6.04398 62.8708 5.54714 64.4359 5.54714ZM66.4704 8.34693C65.9748 7.68895 65.2836 7.35995 64.3967 7.35995C63.5099 7.35995 62.8122 7.68895 62.3035 8.34693C61.7949 9.00491 61.5406 9.90461 61.5406 11.046C61.5406 12.2143 61.7949 13.1274 62.3035 13.7854C62.8122 14.4434 63.5164 14.7724 64.4163 14.7724C65.2901 14.7724 65.9748 14.4434 66.4704 13.7854C66.979 13.114 67.2333 12.1941 67.2333 11.0259C67.2333 9.88447 66.979 8.99149 66.4704 8.34693Z" fill="white"/>
<path d="M74.0366 1.90137V16.2427H71.8261V1.90137H74.0366Z" fill="white"/>
<path d="M81.5332 5.54714C83.0721 5.54714 84.2981 6.04398 85.211 7.03767C86.1239 8.03137 86.5804 9.36748 86.5804 11.046C86.5804 12.738 86.1239 14.0808 85.211 15.0745C84.3111 16.0682 83.0852 16.565 81.5332 16.565C79.9552 16.565 78.7032 16.0682 77.7772 15.0745C76.8512 14.0808 76.3883 12.738 76.3883 11.046C76.3883 9.36748 76.8512 8.03137 77.7772 7.03767C78.7162 6.04398 79.9682 5.54714 81.5332 5.54714ZM83.5677 8.34693C83.0721 7.68895 82.3809 7.35995 81.4941 7.35995C80.6073 7.35995 79.9095 7.68895 79.4009 8.34693C78.8923 9.00491 78.638 9.90461 78.638 11.046C78.638 12.2143 78.8923 13.1274 79.4009 13.7854C79.9095 14.4434 80.6138 14.7724 81.5137 14.7724C82.3875 14.7724 83.0721 14.4434 83.5677 13.7854C84.0763 13.114 84.3307 12.1941 84.3307 11.0259C84.3307 9.88447 84.0763 8.99149 83.5677 8.34693Z" fill="white"/>
<path d="M98.0983 5.84927V15.0342C98.0983 16.8202 97.7266 18.1428 96.9832 19.0023C96.2529 19.8617 95.0074 20.2914 93.2468 20.2914C90.4819 20.2914 88.9756 19.2372 88.7278 17.129H90.9579C91.1666 18.163 91.9491 18.68 93.3054 18.68C94.2314 18.68 94.9031 18.4383 95.3204 17.9548C95.7508 17.4714 95.966 16.6926 95.966 15.6183V14.3896C95.2356 15.5579 94.1662 16.142 92.7577 16.142C91.4144 16.142 90.345 15.6788 89.5494 14.7522C88.7669 13.8122 88.3757 12.55 88.3757 10.9654C88.3757 9.34062 88.7865 8.03808 89.6081 7.05782C90.4297 6.06413 91.5187 5.56728 92.8751 5.56728C93.5924 5.56728 94.1923 5.70828 94.6748 5.99027C95.1574 6.25884 95.6073 6.69525 96.0246 7.29953V5.84927H98.0983ZM93.2663 7.42038C92.4317 7.42038 91.773 7.72923 91.2905 8.34693C90.821 8.96463 90.5863 9.82404 90.5863 10.9252C90.5863 11.9726 90.8275 12.8051 91.3101 13.4228C91.8056 14.0405 92.4577 14.3494 93.2663 14.3494C94.101 14.3494 94.7596 14.0338 95.2421 13.4027C95.7247 12.7581 95.966 11.892 95.966 10.8043C95.966 9.74347 95.7247 8.91763 95.2421 8.32679C94.7726 7.72252 94.114 7.42038 93.2663 7.42038Z" fill="white"/>
<rect x="100.871" width="27.1296" height="22" rx="1.95349" fill="#FD9A00"/>
<path d="M105.163 13.3601V16.1321H102.293V13.3601H105.163Z" fill="black"/>
<path d="M113.673 5.33159V7.56973C113.251 7.52866 112.97 7.50813 112.829 7.50813C110.733 7.50813 109.685 8.8291 109.685 11.4711V16.1321H107.301V5.53693H109.558V7.65186C110.332 6.07764 111.549 5.29053 113.209 5.29053L113.673 5.33159Z" fill="black"/>
<path d="M124.911 5.53693V16.1321H122.653V14.5511C121.738 15.7967 120.543 16.4196 119.066 16.4196C117.87 16.4196 116.949 16.0911 116.301 15.434C115.668 14.7632 115.352 13.805 115.352 12.5593V5.53693H117.757V11.5943C117.757 11.9639 117.764 12.265 117.778 12.4977C117.793 12.7167 117.835 12.97 117.905 13.2575C117.989 13.5312 118.102 13.7434 118.243 13.894C118.397 14.0446 118.608 14.1746 118.876 14.2841C119.157 14.3936 119.495 14.4484 119.889 14.4484C120.789 14.4484 121.45 14.1404 121.872 13.5244C122.294 12.8947 122.505 12.1007 122.505 11.1425V5.53693H124.911Z" fill="black"/>
</svg>
