<svg width="112" height="19" viewBox="0 0 112 19" fill="none" xmlns="http://www.w3.org/2000/svg">
<path d="M9.91088 1.64062V3.51936H6.02527V14.0264H3.88561V3.51936H0V1.64062H9.91088Z" fill="white"/>
<path d="M9.60558 7.8161C9.81098 5.7866 11.1005 4.77185 13.4741 4.77185C14.581 4.77185 15.4597 4.9922 16.1101 5.43289C16.772 5.87358 17.1029 6.55781 17.1029 7.48558V12.0433C17.1029 12.2984 17.1315 12.4723 17.1885 12.5651C17.257 12.6579 17.3825 12.7043 17.5651 12.7043C17.702 12.7043 17.8504 12.6927 18.0101 12.6695V14.0612C17.508 14.1887 17.0858 14.2525 16.7435 14.2525C15.9104 14.2525 15.4311 13.893 15.3056 13.174C14.5639 13.893 13.5311 14.2525 12.2074 14.2525C11.2945 14.2525 10.5698 14.0148 10.0335 13.5393C9.49717 13.0522 9.229 12.397 9.229 11.5736C9.229 11.3184 9.25753 11.0807 9.31458 10.8603C9.37164 10.64 9.43441 10.4486 9.50287 10.2863C9.58276 10.1239 9.70258 9.97316 9.86234 9.834C10.0335 9.69483 10.1704 9.57886 10.2732 9.48608C10.3873 9.39331 10.5641 9.30633 10.8038 9.22515C11.0548 9.14397 11.2374 9.08598 11.3515 9.05119C11.4771 9.0048 11.6882 8.95841 11.9849 8.91203C12.2816 8.86564 12.4756 8.83664 12.5669 8.82505C12.6696 8.80185 12.875 8.77286 13.1831 8.73807C13.8792 8.64529 14.3528 8.56991 14.6038 8.51192C14.8549 8.44234 15.026 8.34377 15.1173 8.2162C15.1972 8.12342 15.2371 7.90887 15.2371 7.57256C15.2371 6.66798 14.6323 6.21569 13.4227 6.21569C12.7837 6.21569 12.3158 6.33746 12.0191 6.581C11.7224 6.82454 11.5341 7.23624 11.4542 7.8161H9.60558ZM15.22 9.52087C15.0717 9.60206 14.9005 9.67744 14.7065 9.74702C14.5125 9.80501 14.3528 9.84559 14.2272 9.86879C14.1131 9.88039 13.9248 9.90358 13.6624 9.93837C13.4113 9.97316 13.2458 9.99636 13.166 10.008C12.9263 10.0427 12.738 10.0775 12.6011 10.1123C12.4642 10.1355 12.293 10.1819 12.0876 10.2515C11.8936 10.3211 11.7395 10.4081 11.6254 10.5124C11.5227 10.6052 11.4314 10.7386 11.3515 10.9125C11.2717 11.0749 11.2317 11.272 11.2317 11.504C11.2317 11.9331 11.3687 12.2636 11.6425 12.4955C11.9278 12.7275 12.3215 12.8435 12.8236 12.8435C13.6909 12.8435 14.3585 12.6057 14.8263 12.1302C15.0888 11.8635 15.22 11.3474 15.22 10.582V9.52087Z" fill="white"/>
<path d="M24.5432 4.87622V6.77235C24.2008 6.73756 23.9726 6.72017 23.8585 6.72017C22.1582 6.72017 21.308 7.83929 21.308 10.0775V14.0264H19.3738V5.05018H21.2053V6.84194C21.8329 5.50827 22.82 4.84143 24.1666 4.84143L24.5432 4.87622Z" fill="white"/>
<path d="M34.0015 5.05018V12.9826C34.0015 14.525 33.6763 15.6674 33.0258 16.4096C32.3868 17.1518 31.297 17.5229 29.7564 17.5229C27.3372 17.5229 26.0192 16.6125 25.8024 14.7918H27.7537C27.9363 15.6848 28.621 16.1312 29.8078 16.1312C30.618 16.1312 31.2057 15.9225 31.5709 15.505C31.9475 15.0875 32.1357 14.4149 32.1357 13.4871V12.426C31.4967 13.4349 30.561 13.9394 29.3285 13.9394C28.1531 13.9394 27.2174 13.5393 26.5213 12.7391C25.8366 11.9273 25.4943 10.8371 25.4943 9.46869C25.4943 8.06543 25.8537 6.94051 26.5726 6.09392C27.2916 5.23573 28.2444 4.80664 29.4312 4.80664C30.0588 4.80664 30.5838 4.92841 31.006 5.17195C31.4282 5.40389 31.8219 5.7808 32.1871 6.30267V5.05018H34.0015ZM29.7736 6.40705C29.0432 6.40705 28.4669 6.67378 28.0447 7.20725C27.6339 7.74072 27.4285 8.48293 27.4285 9.4339C27.4285 10.3385 27.6396 11.0575 28.0618 11.591C28.4955 12.1244 29.066 12.3912 29.7736 12.3912C30.5039 12.3912 31.0802 12.1186 31.5024 11.5736C31.9246 11.0169 32.1357 10.2689 32.1357 9.32952C32.1357 8.41335 31.9246 7.70013 31.5024 7.18985C31.0916 6.66798 30.5153 6.40705 29.7736 6.40705Z" fill="white"/>
<path d="M44.3022 11.2257C44.0854 12.1998 43.6118 12.9594 42.8815 13.5045C42.1626 14.0496 41.301 14.3221 40.2968 14.3221C38.9616 14.3221 37.9004 13.8872 37.113 13.0174C36.337 12.136 35.949 11.0111 35.949 9.64264C35.949 8.23939 36.3484 7.07968 37.1472 6.16351C37.9574 5.24733 38.9845 4.78925 40.2283 4.78925C41.5178 4.78925 42.5391 5.24153 43.2923 6.14611C44.0455 7.03909 44.422 8.26259 44.422 9.8166V10.0254H37.9004C37.9232 10.9299 38.1457 11.6316 38.5679 12.1302C38.9902 12.6173 39.5779 12.8608 40.331 12.8608C40.8674 12.8608 41.301 12.7333 41.6319 12.4781C41.9743 12.2114 42.2424 11.7939 42.4364 11.2257H44.3022ZM42.4707 8.70328C42.4136 7.94946 42.1797 7.35801 41.7689 6.92892C41.3695 6.48823 40.8502 6.26788 40.2112 6.26788C39.5722 6.26788 39.0529 6.47663 38.6535 6.89412C38.2655 7.31162 38.0259 7.91467 37.9346 8.70328H42.4707Z" fill="white"/>
<path d="M50.5614 5.05018V6.49402H48.7812V11.2257C48.7812 11.504 48.7869 11.7011 48.7983 11.8171C48.8097 11.9215 48.8439 12.0433 48.901 12.1824C48.9581 12.31 49.0551 12.397 49.192 12.4434C49.3403 12.4897 49.54 12.5129 49.7911 12.5129C50.1106 12.5129 50.3674 12.5013 50.5614 12.4781V14.0438C50.1734 14.0901 49.734 14.1133 49.2434 14.1133C48.901 14.1133 48.5986 14.0843 48.3361 14.0264C48.0851 13.98 47.874 13.922 47.7028 13.8524C47.5316 13.7828 47.389 13.6668 47.2749 13.5045C47.1608 13.3305 47.0695 13.1914 47.001 13.087C46.9439 12.971 46.8983 12.7739 46.864 12.4955C46.8412 12.2172 46.8298 12.0085 46.8298 11.8693C46.8298 11.7185 46.8298 11.4634 46.8298 11.1039C46.8298 11.0575 46.8298 11.0227 46.8298 10.9995C46.8298 10.9647 46.8298 10.9299 46.8298 10.8951C46.8298 10.8487 46.8298 10.8082 46.8298 10.7734V6.49402H45.3577V5.05018H46.8298V2.35385H48.7812V5.05018H50.5614Z" fill="white"/>
<path d="M56.3814 4.78925C57.7279 4.78925 58.8006 5.21834 59.5994 6.07653C60.3982 6.93471 60.7976 8.08863 60.7976 9.53827C60.7976 10.9995 60.3982 12.1592 59.5994 13.0174C58.812 13.8756 57.7393 14.3047 56.3814 14.3047C55.0006 14.3047 53.9051 13.8756 53.0949 13.0174C52.2846 12.1592 51.8795 10.9995 51.8795 9.53827C51.8795 8.08863 52.2846 6.93471 53.0949 6.07653C53.9165 5.21834 55.012 4.78925 56.3814 4.78925ZM58.1616 7.20725C57.7279 6.63899 57.1231 6.35486 56.3471 6.35486C55.5712 6.35486 54.9606 6.63899 54.5156 7.20725C54.0705 7.77551 53.848 8.55251 53.848 9.53827C53.848 10.5472 54.0705 11.3358 54.5156 11.9041C54.9606 12.4723 55.5769 12.7565 56.3643 12.7565C57.1288 12.7565 57.7279 12.4723 58.1616 11.9041C58.6066 11.3242 58.8291 10.5298 58.8291 9.52087C58.8291 8.53512 58.6066 7.76391 58.1616 7.20725Z" fill="white"/>
<path d="M64.7821 1.64062V14.0264H62.8478V1.64062H64.7821Z" fill="white"/>
<path d="M71.3416 4.78925C72.6881 4.78925 73.7608 5.21834 74.5596 6.07653C75.3584 6.93471 75.7578 8.08863 75.7578 9.53827C75.7578 10.9995 75.3584 12.1592 74.5596 13.0174C73.7722 13.8756 72.6995 14.3047 71.3416 14.3047C69.9608 14.3047 68.8653 13.8756 68.0551 13.0174C67.2448 12.1592 66.8397 10.9995 66.8397 9.53827C66.8397 8.08863 67.2448 6.93471 68.0551 6.07653C68.8767 5.21834 69.9722 4.78925 71.3416 4.78925ZM73.1218 7.20725C72.6881 6.63899 72.0833 6.35486 71.3073 6.35486C70.5313 6.35486 69.9208 6.63899 69.4758 7.20725C69.0307 7.77551 68.8082 8.55251 68.8082 9.53827C68.8082 10.5472 69.0307 11.3358 69.4758 11.9041C69.9208 12.4723 70.5371 12.7565 71.3244 12.7565C72.089 12.7565 72.6881 12.4723 73.1218 11.9041C73.5668 11.3242 73.7893 10.5298 73.7893 9.52087C73.7893 8.53512 73.5668 7.76391 73.1218 7.20725Z" fill="white"/>
<path d="M85.836 5.05018V12.9826C85.836 14.525 85.5108 15.6674 84.8603 16.4096C84.2213 17.1518 83.1315 17.5229 81.5909 17.5229C79.1717 17.5229 77.8536 16.6125 77.6368 14.7918H79.5882C79.7708 15.6848 80.4555 16.1312 81.6423 16.1312C82.4525 16.1312 83.0402 15.9225 83.4053 15.505C83.7819 15.0875 83.9702 14.4149 83.9702 13.4871V12.426C83.3312 13.4349 82.3954 13.9394 81.163 13.9394C79.9876 13.9394 79.0518 13.5393 78.3558 12.7391C77.6711 11.9273 77.3287 10.8371 77.3287 9.46869C77.3287 8.06543 77.6882 6.94051 78.4071 6.09392C79.126 5.23573 80.0789 4.80664 81.2657 4.80664C81.8933 4.80664 82.4182 4.92841 82.8405 5.17195C83.2627 5.40389 83.6564 5.7808 84.0216 6.30267V5.05018H85.836ZM81.608 6.40705C80.8777 6.40705 80.3014 6.67378 79.8792 7.20725C79.4684 7.74072 79.263 8.48293 79.263 9.4339C79.263 10.3385 79.4741 11.0575 79.8963 11.591C80.3299 12.1244 80.9005 12.3912 81.608 12.3912C82.3384 12.3912 82.9146 12.1186 83.3369 11.5736C83.7591 11.0169 83.9702 10.2689 83.9702 9.32952C83.9702 8.41335 83.7591 7.70013 83.3369 7.18985C82.9261 6.66798 82.3498 6.40705 81.608 6.40705Z" fill="white"/>
<rect x="88.2617" width="23.7384" height="19" rx="2.97674" fill="#FD9A00"/>
<path d="M92.0173 11.5395V13.9335H89.5063V11.5395H92.0173Z" fill="black"/>
<path d="M99.4639 4.60578V6.53871C99.0947 6.50325 98.8485 6.48551 98.7254 6.48551C96.8914 6.48551 95.9744 7.62636 95.9744 9.90805V13.9335H93.888V4.78311H95.8636V6.60965C96.5406 5.25009 97.6053 4.57031 99.0577 4.57031L99.4639 4.60578Z" fill="black"/>
<path d="M109.297 4.78311V13.9335H107.321V12.568C106.521 13.6439 105.475 14.1818 104.182 14.1818C103.136 14.1818 102.33 13.898 101.764 13.3306C101.21 12.7513 100.933 11.9237 100.933 10.8479V4.78311H103.038V10.0144C103.038 10.3336 103.044 10.5937 103.056 10.7947C103.068 10.9839 103.105 11.2026 103.167 11.4508C103.241 11.6873 103.339 11.8705 103.462 12.0006C103.598 12.1306 103.782 12.2429 104.016 12.3375C104.262 12.4321 104.558 12.4794 104.902 12.4794C105.69 12.4794 106.269 12.2134 106.638 11.6814C107.007 11.1376 107.192 10.4519 107.192 9.62431V4.78311H109.297Z" fill="black"/>
</svg>
