<svg width="72" height="72" viewBox="0 0 72 72" fill="none" xmlns="http://www.w3.org/2000/svg">
<path d="M36 0C16.1208 0 0 16.1208 0 36C0 55.8792 16.1208 72 36 72C55.8792 72 72 55.8792 72 36C72 16.1208 55.8792 0 36 0ZM54.0605 27.5446V32.4191C51.762 32.42 49.5287 31.9695 47.4224 31.0809C46.0681 30.5092 44.8062 29.7724 43.6521 28.8821L43.6867 43.8858C43.6722 47.2643 42.3356 50.4387 39.9164 52.8297C37.9477 54.776 35.453 56.0136 32.749 56.4142C32.1137 56.5083 31.4671 56.5566 30.8132 56.5566C27.9187 56.5566 25.1707 55.6189 22.9229 53.8889C22.4999 53.5632 22.0953 53.2101 21.7101 52.8297C19.0883 50.2384 17.7363 46.7265 17.964 43.0318C18.1377 40.2195 19.2637 37.5373 21.1407 35.4351C23.6242 32.6533 27.0984 31.1092 30.8132 31.1092C31.4671 31.1092 32.1137 31.1583 32.749 31.2524V33.0546V38.0682C32.1466 37.8695 31.5032 37.7602 30.8333 37.7602C27.4395 37.7602 24.6938 40.5291 24.7445 43.9255C24.7767 46.0986 25.9637 47.9981 27.7145 49.0452C28.5373 49.5374 29.4839 49.8423 30.494 49.8977C31.2854 49.9411 32.0453 49.8309 32.749 49.5986C35.1738 48.7976 36.9231 46.52 36.9231 43.8338L36.9311 33.7866V15.4434H43.644C43.6504 16.1086 43.7179 16.7576 43.8434 17.3865C44.35 19.9319 45.7848 22.1403 47.7817 23.6458C49.5229 24.9591 51.6911 25.7376 54.0411 25.7376C54.0426 25.7376 54.062 25.7376 54.0603 25.7361V27.5446H54.0605Z" fill="#FF9900"/>
</svg>
