<svg width="80" height="80" viewBox="0 0 80 80" fill="none" xmlns="http://www.w3.org/2000/svg">
<path d="M40 0C17.912 0 0 17.912 0 40C0 62.088 17.912 80 40 80C62.088 80 80 62.088 80 40C80 17.912 62.088 0 40 0ZM60.0672 30.6052V36.0212C57.5133 36.0222 55.0319 35.5217 52.6916 34.5344C51.1867 33.8991 49.7847 33.0805 48.5023 32.0913L48.5408 48.762C48.5247 52.5159 47.0395 56.043 44.3516 58.6997C42.1641 60.8622 39.3922 62.2373 36.3878 62.6825C35.6819 62.787 34.9634 62.8406 34.2369 62.8406C31.0208 62.8406 27.9675 61.7987 25.4698 59.8766C24.9998 59.5147 24.5503 59.1223 24.1223 58.6997C21.2092 55.8205 19.707 51.9183 19.96 47.8131C20.153 44.6883 21.4041 41.7081 23.4897 39.3723C26.2491 36.2814 30.1094 34.5658 34.2369 34.5658C34.9634 34.5658 35.6819 34.6203 36.3878 34.7248V36.7273V42.298C35.7184 42.0772 35.0036 41.9558 34.2592 41.9558C30.4883 41.9558 27.4375 45.0323 27.4939 48.8061C27.5297 51.2206 28.8486 53.3312 30.7939 54.4947C31.7081 55.0416 32.7598 55.3803 33.8822 55.4419C34.7616 55.4902 35.6059 55.3677 36.3878 55.1095C39.082 54.2195 41.0256 51.6889 41.0256 48.7042L41.0345 37.5406V17.1594H48.4933C48.5005 17.8984 48.5755 18.6195 48.7148 19.3183C49.2778 22.1466 50.872 24.6003 53.0908 26.2731C55.0255 27.7323 57.4345 28.5973 60.0456 28.5973C60.0473 28.5973 60.0689 28.5973 60.067 28.5956V30.6052H60.0672Z" fill="#E17B00"/>
</svg>
